<mxfile host="app.diagrams.net" modified="2024-06-09T17:41:39.545Z" agent="Mozilla/5.0 (Windows NT 10.0; Win64; x64) AppleWebKit/537.36 (KHTML, like Gecko) Chrome/125.0.0.0 Safari/537.36" etag="S7Np8ByGqbLwvzM1nico" version="24.5.2" type="github">
  <diagram name="หน้า-1" id="53lPq11fm_TznE_ffrCT">
    <mxGraphModel dx="1740" dy="360" grid="1" gridSize="10" guides="1" tooltips="1" connect="1" arrows="1" fold="1" page="1" pageScale="1" pageWidth="850" pageHeight="1100" math="0" shadow="0">
      <root>
        <mxCell id="0" />
        <mxCell id="1" parent="0" />
        <mxCell id="qq_xr-GSS8OlxjDfpCxM-1" value="Communication Diagram" style="rounded=0;whiteSpace=wrap;html=1;fillColor=#FFFFCC;" vertex="1" parent="1">
          <mxGeometry x="345" y="20" width="160" height="40" as="geometry" />
        </mxCell>
        <mxCell id="qq_xr-GSS8OlxjDfpCxM-2" value="User" style="shape=umlActor;verticalLabelPosition=bottom;verticalAlign=top;html=1;outlineConnect=0;" vertex="1" parent="1">
          <mxGeometry x="-80" y="350" width="40" height="70" as="geometry" />
        </mxCell>
        <mxCell id="qq_xr-GSS8OlxjDfpCxM-7" value="&lt;div&gt;&lt;br&gt;&lt;/div&gt;&lt;div&gt;:system interface&lt;/div&gt;" style="whiteSpace=wrap;html=1;verticalAlign=top;" vertex="1" parent="1">
          <mxGeometry x="365" y="355" width="120" height="60" as="geometry" />
        </mxCell>
        <mxCell id="qq_xr-GSS8OlxjDfpCxM-11" value="" style="endArrow=none;html=1;rounded=0;exitX=0.5;exitY=0;exitDx=0;exitDy=0;entryX=0.5;entryY=1;entryDx=0;entryDy=0;" edge="1" parent="1" source="qq_xr-GSS8OlxjDfpCxM-7" target="qq_xr-GSS8OlxjDfpCxM-12">
          <mxGeometry width="50" height="50" relative="1" as="geometry">
            <mxPoint x="440" y="350" as="sourcePoint" />
            <mxPoint x="420" y="230" as="targetPoint" />
          </mxGeometry>
        </mxCell>
        <mxCell id="qq_xr-GSS8OlxjDfpCxM-12" value="&lt;div&gt;&lt;br&gt;&lt;/div&gt;&lt;div&gt;:profile page&lt;/div&gt;" style="whiteSpace=wrap;html=1;verticalAlign=top;" vertex="1" parent="1">
          <mxGeometry x="365" y="220" width="120" height="60" as="geometry" />
        </mxCell>
        <mxCell id="qq_xr-GSS8OlxjDfpCxM-13" value="" style="endArrow=none;html=1;rounded=0;exitX=1;exitY=0.5;exitDx=0;exitDy=0;" edge="1" parent="1" source="qq_xr-GSS8OlxjDfpCxM-7">
          <mxGeometry width="50" height="50" relative="1" as="geometry">
            <mxPoint x="435" y="365" as="sourcePoint" />
            <mxPoint x="630" y="385" as="targetPoint" />
          </mxGeometry>
        </mxCell>
        <mxCell id="qq_xr-GSS8OlxjDfpCxM-14" value="&lt;div&gt;&lt;br&gt;&lt;/div&gt;&lt;div&gt;:General Library&lt;/div&gt;" style="whiteSpace=wrap;html=1;verticalAlign=top;" vertex="1" parent="1">
          <mxGeometry x="630" y="355" width="120" height="60" as="geometry" />
        </mxCell>
        <mxCell id="qq_xr-GSS8OlxjDfpCxM-15" value="" style="endArrow=none;html=1;rounded=0;" edge="1" parent="1">
          <mxGeometry width="50" height="50" relative="1" as="geometry">
            <mxPoint x="425" y="500" as="sourcePoint" />
            <mxPoint x="425" y="415" as="targetPoint" />
          </mxGeometry>
        </mxCell>
        <mxCell id="qq_xr-GSS8OlxjDfpCxM-16" value="&lt;div&gt;&lt;br&gt;&lt;/div&gt;&lt;div&gt;:group page&lt;/div&gt;" style="whiteSpace=wrap;html=1;verticalAlign=top;" vertex="1" parent="1">
          <mxGeometry x="365" y="500" width="120" height="60" as="geometry" />
        </mxCell>
        <mxCell id="qq_xr-GSS8OlxjDfpCxM-17" value="" style="endArrow=none;html=1;rounded=0;" edge="1" parent="1" source="qq_xr-GSS8OlxjDfpCxM-2">
          <mxGeometry width="50" height="50" relative="1" as="geometry">
            <mxPoint x="490" y="300" as="sourcePoint" />
            <mxPoint x="190" y="385" as="targetPoint" />
          </mxGeometry>
        </mxCell>
        <mxCell id="qq_xr-GSS8OlxjDfpCxM-19" value="" style="endArrow=none;html=1;rounded=0;" edge="1" parent="1" source="qq_xr-GSS8OlxjDfpCxM-18">
          <mxGeometry width="50" height="50" relative="1" as="geometry">
            <mxPoint x="240" y="384.58" as="sourcePoint" />
            <mxPoint x="360" y="385" as="targetPoint" />
          </mxGeometry>
        </mxCell>
        <mxCell id="qq_xr-GSS8OlxjDfpCxM-20" value="1. login (username, password)&lt;div&gt;&lt;span style=&quot;background-color: initial;&quot;&gt;2. signup (username, password)&lt;/span&gt;&lt;/div&gt;&lt;div&gt;3. perform action&amp;nbsp;&lt;br&gt;&lt;div&gt;&lt;br&gt;&lt;/div&gt;&lt;/div&gt;" style="text;html=1;align=center;verticalAlign=middle;whiteSpace=wrap;rounded=0;" vertex="1" parent="1">
          <mxGeometry x="-20" y="350" width="190" height="30" as="geometry" />
        </mxCell>
        <mxCell id="qq_xr-GSS8OlxjDfpCxM-22" value="" style="endArrow=none;html=1;rounded=0;" edge="1" parent="1" target="qq_xr-GSS8OlxjDfpCxM-18">
          <mxGeometry width="50" height="50" relative="1" as="geometry">
            <mxPoint x="240" y="384.58" as="sourcePoint" />
            <mxPoint x="360" y="385" as="targetPoint" />
          </mxGeometry>
        </mxCell>
        <mxCell id="qq_xr-GSS8OlxjDfpCxM-18" value="&lt;div&gt;&lt;br&gt;&lt;/div&gt;&lt;div&gt;:account verification&lt;/div&gt;" style="whiteSpace=wrap;html=1;verticalAlign=top;" vertex="1" parent="1">
          <mxGeometry x="170" y="355" width="120" height="60" as="geometry" />
        </mxCell>
        <mxCell id="qq_xr-GSS8OlxjDfpCxM-23" value="" style="endArrow=classic;html=1;rounded=0;" edge="1" parent="1">
          <mxGeometry width="50" height="50" relative="1" as="geometry">
            <mxPoint x="310" y="360" as="sourcePoint" />
            <mxPoint x="350" y="360" as="targetPoint" />
          </mxGeometry>
        </mxCell>
        <mxCell id="qq_xr-GSS8OlxjDfpCxM-24" value="1.1 pass verification&lt;div&gt;2.1 create account successfully&lt;/div&gt;" style="text;html=1;align=center;verticalAlign=middle;whiteSpace=wrap;rounded=0;" vertex="1" parent="1">
          <mxGeometry x="260" y="290" width="130" height="60" as="geometry" />
        </mxCell>
        <mxCell id="qq_xr-GSS8OlxjDfpCxM-25" value="" style="endArrow=none;html=1;rounded=0;exitX=0.5;exitY=0;exitDx=0;exitDy=0;" edge="1" parent="1" source="qq_xr-GSS8OlxjDfpCxM-12">
          <mxGeometry width="50" height="50" relative="1" as="geometry">
            <mxPoint x="420" y="220" as="sourcePoint" />
            <mxPoint x="425" y="150" as="targetPoint" />
          </mxGeometry>
        </mxCell>
        <mxCell id="qq_xr-GSS8OlxjDfpCxM-26" value="&lt;div&gt;&lt;br&gt;&lt;/div&gt;&lt;div&gt;:profile information&lt;/div&gt;" style="whiteSpace=wrap;html=1;verticalAlign=top;" vertex="1" parent="1">
          <mxGeometry x="365" y="90" width="120" height="60" as="geometry" />
        </mxCell>
        <mxCell id="qq_xr-GSS8OlxjDfpCxM-27" value="" style="endArrow=classic;html=1;rounded=0;" edge="1" parent="1">
          <mxGeometry width="50" height="50" relative="1" as="geometry">
            <mxPoint x="450" y="210" as="sourcePoint" />
            <mxPoint x="450" y="170" as="targetPoint" />
          </mxGeometry>
        </mxCell>
        <mxCell id="qq_xr-GSS8OlxjDfpCxM-30" value="3.1 enter profile page" style="text;html=1;align=center;verticalAlign=middle;whiteSpace=wrap;rounded=0;" vertex="1" parent="1">
          <mxGeometry x="440" y="305" width="85" height="30" as="geometry" />
        </mxCell>
        <mxCell id="qq_xr-GSS8OlxjDfpCxM-31" value="3.1.1 edit profile information" style="text;html=1;align=center;verticalAlign=middle;whiteSpace=wrap;rounded=0;" vertex="1" parent="1">
          <mxGeometry x="460" y="180" width="110" height="30" as="geometry" />
        </mxCell>
        <mxCell id="qq_xr-GSS8OlxjDfpCxM-32" value="3.3 enter General Library" style="text;html=1;align=center;verticalAlign=middle;whiteSpace=wrap;rounded=0;" vertex="1" parent="1">
          <mxGeometry x="525" y="400" width="85" height="40" as="geometry" />
        </mxCell>
        <mxCell id="qq_xr-GSS8OlxjDfpCxM-33" value="3.2 enter group page" style="text;html=1;align=center;verticalAlign=middle;whiteSpace=wrap;rounded=0;" vertex="1" parent="1">
          <mxGeometry x="450" y="450" width="85" height="30" as="geometry" />
        </mxCell>
        <mxCell id="qq_xr-GSS8OlxjDfpCxM-34" value="" style="endArrow=classic;html=1;rounded=0;" edge="1" parent="1">
          <mxGeometry width="50" height="50" relative="1" as="geometry">
            <mxPoint x="440" y="340" as="sourcePoint" />
            <mxPoint x="440" y="300" as="targetPoint" />
          </mxGeometry>
        </mxCell>
        <mxCell id="qq_xr-GSS8OlxjDfpCxM-35" value="" style="endArrow=classic;html=1;rounded=0;" edge="1" parent="1">
          <mxGeometry width="50" height="50" relative="1" as="geometry">
            <mxPoint x="537.5" y="400" as="sourcePoint" />
            <mxPoint x="597.5" y="400" as="targetPoint" />
          </mxGeometry>
        </mxCell>
        <mxCell id="qq_xr-GSS8OlxjDfpCxM-36" value="" style="endArrow=classic;html=1;rounded=0;" edge="1" parent="1">
          <mxGeometry width="50" height="50" relative="1" as="geometry">
            <mxPoint x="440" y="445" as="sourcePoint" />
            <mxPoint x="440" y="485" as="targetPoint" />
          </mxGeometry>
        </mxCell>
        <mxCell id="qq_xr-GSS8OlxjDfpCxM-37" value="" style="endArrow=none;html=1;rounded=0;exitX=1;exitY=0.75;exitDx=0;exitDy=0;" edge="1" parent="1">
          <mxGeometry width="50" height="50" relative="1" as="geometry">
            <mxPoint x="749.9999999999998" y="384.58" as="sourcePoint" />
            <mxPoint x="880" y="384.58" as="targetPoint" />
          </mxGeometry>
        </mxCell>
        <mxCell id="qq_xr-GSS8OlxjDfpCxM-38" value="&lt;div&gt;&lt;br&gt;&lt;/div&gt;&lt;div&gt;:Resources&lt;/div&gt;" style="whiteSpace=wrap;html=1;verticalAlign=top;" vertex="1" parent="1">
          <mxGeometry x="880" y="350" width="120" height="60" as="geometry" />
        </mxCell>
        <mxCell id="qq_xr-GSS8OlxjDfpCxM-39" value="" style="endArrow=none;html=1;rounded=0;exitX=1;exitY=0.75;exitDx=0;exitDy=0;" edge="1" parent="1">
          <mxGeometry width="50" height="50" relative="1" as="geometry">
            <mxPoint x="730" y="355" as="sourcePoint" />
            <mxPoint x="730" y="320" as="targetPoint" />
          </mxGeometry>
        </mxCell>
        <mxCell id="qq_xr-GSS8OlxjDfpCxM-40" value="3.3.1&lt;div&gt;upload resources&lt;/div&gt;" style="text;html=1;align=center;verticalAlign=middle;whiteSpace=wrap;rounded=0;" vertex="1" parent="1">
          <mxGeometry x="770" y="270" width="100" height="30" as="geometry" />
        </mxCell>
        <mxCell id="qq_xr-GSS8OlxjDfpCxM-41" value="" style="endArrow=classic;html=1;rounded=0;" edge="1" parent="1">
          <mxGeometry width="50" height="50" relative="1" as="geometry">
            <mxPoint x="780" y="305" as="sourcePoint" />
            <mxPoint x="850" y="305" as="targetPoint" />
          </mxGeometry>
        </mxCell>
        <mxCell id="qq_xr-GSS8OlxjDfpCxM-42" value="" style="endArrow=classic;html=1;rounded=0;" edge="1" parent="1">
          <mxGeometry width="50" height="50" relative="1" as="geometry">
            <mxPoint x="785" y="400" as="sourcePoint" />
            <mxPoint x="855" y="400" as="targetPoint" />
          </mxGeometry>
        </mxCell>
        <mxCell id="qq_xr-GSS8OlxjDfpCxM-43" value="" style="endArrow=none;html=1;rounded=0;exitX=1;exitY=0.75;exitDx=0;exitDy=0;" edge="1" parent="1">
          <mxGeometry width="50" height="50" relative="1" as="geometry">
            <mxPoint x="920" y="350" as="sourcePoint" />
            <mxPoint x="920" y="315" as="targetPoint" />
          </mxGeometry>
        </mxCell>
        <mxCell id="qq_xr-GSS8OlxjDfpCxM-44" value="" style="endArrow=none;html=1;rounded=0;" edge="1" parent="1">
          <mxGeometry width="50" height="50" relative="1" as="geometry">
            <mxPoint x="730" y="320" as="sourcePoint" />
            <mxPoint x="920" y="320" as="targetPoint" />
          </mxGeometry>
        </mxCell>
        <mxCell id="qq_xr-GSS8OlxjDfpCxM-45" value="3.3.2&lt;div&gt;share resources&lt;/div&gt;" style="text;html=1;align=center;verticalAlign=middle;whiteSpace=wrap;rounded=0;" vertex="1" parent="1">
          <mxGeometry x="770" y="350" width="100" height="30" as="geometry" />
        </mxCell>
        <mxCell id="qq_xr-GSS8OlxjDfpCxM-46" value="" style="endArrow=none;html=1;rounded=0;exitX=1;exitY=0.75;exitDx=0;exitDy=0;" edge="1" parent="1">
          <mxGeometry width="50" height="50" relative="1" as="geometry">
            <mxPoint x="730" y="450" as="sourcePoint" />
            <mxPoint x="730" y="415" as="targetPoint" />
          </mxGeometry>
        </mxCell>
        <mxCell id="qq_xr-GSS8OlxjDfpCxM-47" value="" style="endArrow=none;html=1;rounded=0;exitX=1;exitY=0.75;exitDx=0;exitDy=0;entryX=0.328;entryY=1.017;entryDx=0;entryDy=0;entryPerimeter=0;" edge="1" parent="1" target="qq_xr-GSS8OlxjDfpCxM-38">
          <mxGeometry width="50" height="50" relative="1" as="geometry">
            <mxPoint x="920" y="450" as="sourcePoint" />
            <mxPoint x="920.42" y="415" as="targetPoint" />
          </mxGeometry>
        </mxCell>
        <mxCell id="qq_xr-GSS8OlxjDfpCxM-48" value="" style="endArrow=none;html=1;rounded=0;" edge="1" parent="1">
          <mxGeometry width="50" height="50" relative="1" as="geometry">
            <mxPoint x="730" y="450" as="sourcePoint" />
            <mxPoint x="920" y="450" as="targetPoint" />
          </mxGeometry>
        </mxCell>
        <mxCell id="qq_xr-GSS8OlxjDfpCxM-49" value="3.3.3&lt;div&gt;browse resources&lt;/div&gt;" style="text;html=1;align=center;verticalAlign=middle;whiteSpace=wrap;rounded=0;" vertex="1" parent="1">
          <mxGeometry x="770" y="470" width="100" height="30" as="geometry" />
        </mxCell>
        <mxCell id="qq_xr-GSS8OlxjDfpCxM-50" value="" style="endArrow=classic;html=1;rounded=0;" edge="1" parent="1">
          <mxGeometry width="50" height="50" relative="1" as="geometry">
            <mxPoint x="790" y="460" as="sourcePoint" />
            <mxPoint x="860" y="460" as="targetPoint" />
          </mxGeometry>
        </mxCell>
        <mxCell id="qq_xr-GSS8OlxjDfpCxM-51" value="" style="endArrow=none;html=1;rounded=0;entryX=0.011;entryY=0.614;entryDx=0;entryDy=0;entryPerimeter=0;" edge="1" parent="1" target="qq_xr-GSS8OlxjDfpCxM-16">
          <mxGeometry width="50" height="50" relative="1" as="geometry">
            <mxPoint x="240" y="540" as="sourcePoint" />
            <mxPoint x="340" y="520" as="targetPoint" />
          </mxGeometry>
        </mxCell>
        <mxCell id="qq_xr-GSS8OlxjDfpCxM-52" value="" style="endArrow=none;html=1;rounded=0;entryX=1;entryY=0.5;entryDx=0;entryDy=0;exitX=0;exitY=0.25;exitDx=0;exitDy=0;" edge="1" parent="1" source="qq_xr-GSS8OlxjDfpCxM-71" target="qq_xr-GSS8OlxjDfpCxM-16">
          <mxGeometry width="50" height="50" relative="1" as="geometry">
            <mxPoint x="570" y="550" as="sourcePoint" />
            <mxPoint x="490" y="530" as="targetPoint" />
          </mxGeometry>
        </mxCell>
        <mxCell id="qq_xr-GSS8OlxjDfpCxM-53" value="" style="endArrow=classic;html=1;rounded=0;" edge="1" parent="1">
          <mxGeometry width="50" height="50" relative="1" as="geometry">
            <mxPoint x="327.5" y="530" as="sourcePoint" />
            <mxPoint x="257.5" y="530" as="targetPoint" />
          </mxGeometry>
        </mxCell>
        <mxCell id="qq_xr-GSS8OlxjDfpCxM-54" value="3.2.1 enter group" style="text;html=1;align=center;verticalAlign=middle;whiteSpace=wrap;rounded=0;" vertex="1" parent="1">
          <mxGeometry x="250" y="490" width="85" height="30" as="geometry" />
        </mxCell>
        <mxCell id="qq_xr-GSS8OlxjDfpCxM-55" value="&lt;div&gt;&lt;br&gt;&lt;/div&gt;&lt;div&gt;:group&lt;/div&gt;" style="whiteSpace=wrap;html=1;verticalAlign=top;" vertex="1" parent="1">
          <mxGeometry x="120" y="510" width="120" height="60" as="geometry" />
        </mxCell>
        <mxCell id="qq_xr-GSS8OlxjDfpCxM-56" value="" style="endArrow=none;html=1;rounded=0;entryX=0.5;entryY=1;entryDx=0;entryDy=0;" edge="1" parent="1" target="qq_xr-GSS8OlxjDfpCxM-55">
          <mxGeometry width="50" height="50" relative="1" as="geometry">
            <mxPoint x="180" y="720" as="sourcePoint" />
            <mxPoint x="310" y="550" as="targetPoint" />
          </mxGeometry>
        </mxCell>
        <mxCell id="qq_xr-GSS8OlxjDfpCxM-57" value=":group information" style="rounded=0;whiteSpace=wrap;html=1;" vertex="1" parent="1">
          <mxGeometry x="120" y="720" width="120" height="60" as="geometry" />
        </mxCell>
        <mxCell id="qq_xr-GSS8OlxjDfpCxM-59" value="3.2.1.2&lt;div&gt;like post&lt;/div&gt;" style="text;html=1;align=center;verticalAlign=middle;whiteSpace=wrap;rounded=0;" vertex="1" parent="1">
          <mxGeometry x="187.5" y="620" width="62.5" height="30" as="geometry" />
        </mxCell>
        <mxCell id="qq_xr-GSS8OlxjDfpCxM-60" value="" style="endArrow=classic;html=1;rounded=0;" edge="1" parent="1">
          <mxGeometry width="50" height="50" relative="1" as="geometry">
            <mxPoint x="190" y="620" as="sourcePoint" />
            <mxPoint x="190" y="650" as="targetPoint" />
          </mxGeometry>
        </mxCell>
        <mxCell id="qq_xr-GSS8OlxjDfpCxM-61" value="" style="endArrow=none;html=1;rounded=0;exitX=1;exitY=1;exitDx=0;exitDy=0;" edge="1" parent="1" source="qq_xr-GSS8OlxjDfpCxM-55">
          <mxGeometry width="50" height="50" relative="1" as="geometry">
            <mxPoint x="230" y="680" as="sourcePoint" />
            <mxPoint x="280" y="640" as="targetPoint" />
          </mxGeometry>
        </mxCell>
        <mxCell id="qq_xr-GSS8OlxjDfpCxM-62" value="" style="endArrow=none;html=1;rounded=0;exitX=1;exitY=0;exitDx=0;exitDy=0;" edge="1" parent="1" source="qq_xr-GSS8OlxjDfpCxM-57">
          <mxGeometry width="50" height="50" relative="1" as="geometry">
            <mxPoint x="230" y="680" as="sourcePoint" />
            <mxPoint x="280" y="640" as="targetPoint" />
          </mxGeometry>
        </mxCell>
        <mxCell id="qq_xr-GSS8OlxjDfpCxM-63" value="3.2.1.1&lt;div&gt;upload post&lt;/div&gt;" style="text;html=1;align=center;verticalAlign=middle;whiteSpace=wrap;rounded=0;" vertex="1" parent="1">
          <mxGeometry x="282.5" y="600" width="62.5" height="30" as="geometry" />
        </mxCell>
        <mxCell id="qq_xr-GSS8OlxjDfpCxM-65" value="" style="endArrow=classic;html=1;rounded=0;" edge="1" parent="1">
          <mxGeometry width="50" height="50" relative="1" as="geometry">
            <mxPoint x="270" y="610" as="sourcePoint" />
            <mxPoint x="290" y="640" as="targetPoint" />
          </mxGeometry>
        </mxCell>
        <mxCell id="qq_xr-GSS8OlxjDfpCxM-67" value="" style="endArrow=none;html=1;rounded=0;entryX=0;entryY=1;entryDx=0;entryDy=0;" edge="1" parent="1" target="qq_xr-GSS8OlxjDfpCxM-55">
          <mxGeometry width="50" height="50" relative="1" as="geometry">
            <mxPoint x="80" y="640" as="sourcePoint" />
            <mxPoint x="160" y="630" as="targetPoint" />
          </mxGeometry>
        </mxCell>
        <mxCell id="qq_xr-GSS8OlxjDfpCxM-68" value="" style="endArrow=none;html=1;rounded=0;entryX=0;entryY=0;entryDx=0;entryDy=0;" edge="1" parent="1" target="qq_xr-GSS8OlxjDfpCxM-57">
          <mxGeometry width="50" height="50" relative="1" as="geometry">
            <mxPoint x="80" y="640" as="sourcePoint" />
            <mxPoint x="160" y="630" as="targetPoint" />
          </mxGeometry>
        </mxCell>
        <mxCell id="qq_xr-GSS8OlxjDfpCxM-69" value="" style="endArrow=classic;html=1;rounded=0;" edge="1" parent="1">
          <mxGeometry width="50" height="50" relative="1" as="geometry">
            <mxPoint x="90" y="600" as="sourcePoint" />
            <mxPoint x="70" y="630" as="targetPoint" />
          </mxGeometry>
        </mxCell>
        <mxCell id="qq_xr-GSS8OlxjDfpCxM-70" value="3.2.1.3&lt;div&gt;edit group&lt;/div&gt;" style="text;html=1;align=center;verticalAlign=middle;whiteSpace=wrap;rounded=0;" vertex="1" parent="1">
          <mxGeometry x="10" y="590" width="62.5" height="30" as="geometry" />
        </mxCell>
        <mxCell id="qq_xr-GSS8OlxjDfpCxM-71" value="&lt;div&gt;&lt;br&gt;&lt;/div&gt;&lt;div&gt;:new group&lt;/div&gt;" style="whiteSpace=wrap;html=1;verticalAlign=top;" vertex="1" parent="1">
          <mxGeometry x="580" y="575" width="120" height="60" as="geometry" />
        </mxCell>
        <mxCell id="qq_xr-GSS8OlxjDfpCxM-72" value="3.2.2&amp;nbsp;&lt;div&gt;create new group&lt;/div&gt;" style="text;html=1;align=center;verticalAlign=middle;whiteSpace=wrap;rounded=0;" vertex="1" parent="1">
          <mxGeometry x="535" y="510" width="85" height="30" as="geometry" />
        </mxCell>
        <mxCell id="qq_xr-GSS8OlxjDfpCxM-73" value="" style="endArrow=classic;html=1;rounded=0;" edge="1" parent="1">
          <mxGeometry width="50" height="50" relative="1" as="geometry">
            <mxPoint x="525" y="540" as="sourcePoint" />
            <mxPoint x="565" y="570" as="targetPoint" />
          </mxGeometry>
        </mxCell>
      </root>
    </mxGraphModel>
  </diagram>
</mxfile>
